<mxfile host="app.diagrams.net" modified="2023-06-16T12:46:16.446Z" agent="Mozilla/5.0 (Windows NT 10.0; Win64; x64) AppleWebKit/537.36 (KHTML, like Gecko) Chrome/114.0.0.0 Safari/537.36 Edg/114.0.1823.43" etag="dzphIVI0rDAewu4CwcDn" version="21.3.8" type="github">
  <diagram name="Page-1" id="rd_gYMl7C7A_1lSNkGFk">
    <mxGraphModel dx="926" dy="534" grid="1" gridSize="10" guides="1" tooltips="1" connect="1" arrows="1" fold="1" page="1" pageScale="1" pageWidth="1169" pageHeight="827" math="0" shadow="0">
      <root>
        <mxCell id="0" />
        <mxCell id="1" parent="0" />
        <mxCell id="wjIAF-qfjq8jpuFrIgBy-3" value="" style="edgeStyle=orthogonalEdgeStyle;rounded=0;orthogonalLoop=1;jettySize=auto;html=1;exitX=0.5;exitY=1;exitDx=0;exitDy=0;fillColor=#d0cee2;strokeColor=#56517e;" edge="1" parent="1" source="wjIAF-qfjq8jpuFrIgBy-1" target="wjIAF-qfjq8jpuFrIgBy-2">
          <mxGeometry relative="1" as="geometry">
            <Array as="points">
              <mxPoint x="510" y="120" />
              <mxPoint x="190" y="120" />
            </Array>
          </mxGeometry>
        </mxCell>
        <mxCell id="wjIAF-qfjq8jpuFrIgBy-5" value="" style="edgeStyle=orthogonalEdgeStyle;rounded=0;orthogonalLoop=1;jettySize=auto;html=1;fillColor=#d0cee2;strokeColor=#56517e;" edge="1" parent="1" source="wjIAF-qfjq8jpuFrIgBy-1" target="wjIAF-qfjq8jpuFrIgBy-4">
          <mxGeometry relative="1" as="geometry">
            <Array as="points">
              <mxPoint x="510" y="120" />
              <mxPoint x="420" y="120" />
            </Array>
          </mxGeometry>
        </mxCell>
        <mxCell id="wjIAF-qfjq8jpuFrIgBy-7" value="" style="edgeStyle=orthogonalEdgeStyle;rounded=0;orthogonalLoop=1;jettySize=auto;html=1;exitX=0.5;exitY=1;exitDx=0;exitDy=0;fillColor=#d0cee2;strokeColor=#56517e;" edge="1" parent="1" source="wjIAF-qfjq8jpuFrIgBy-1" target="wjIAF-qfjq8jpuFrIgBy-6">
          <mxGeometry relative="1" as="geometry">
            <Array as="points">
              <mxPoint x="510" y="120" />
              <mxPoint x="820" y="120" />
            </Array>
          </mxGeometry>
        </mxCell>
        <mxCell id="wjIAF-qfjq8jpuFrIgBy-1" value="AI Technique for Fault&amp;nbsp; Diangnosis&amp;nbsp;" style="rounded=0;whiteSpace=wrap;html=1;fillColor=#d0cee2;strokeColor=#56517e;" vertex="1" parent="1">
          <mxGeometry x="450" y="30" width="120" height="60" as="geometry" />
        </mxCell>
        <mxCell id="wjIAF-qfjq8jpuFrIgBy-2" value="Expert system" style="whiteSpace=wrap;html=1;rounded=0;fillColor=#d0cee2;strokeColor=#56517e;" vertex="1" parent="1">
          <mxGeometry x="130" y="160" width="120" height="60" as="geometry" />
        </mxCell>
        <mxCell id="wjIAF-qfjq8jpuFrIgBy-11" value="" style="edgeStyle=orthogonalEdgeStyle;rounded=0;orthogonalLoop=1;jettySize=auto;html=1;fillColor=#d0cee2;strokeColor=#56517e;" edge="1" parent="1" source="wjIAF-qfjq8jpuFrIgBy-4" target="wjIAF-qfjq8jpuFrIgBy-10">
          <mxGeometry relative="1" as="geometry">
            <Array as="points">
              <mxPoint x="420" y="260" />
              <mxPoint x="350" y="260" />
            </Array>
          </mxGeometry>
        </mxCell>
        <mxCell id="wjIAF-qfjq8jpuFrIgBy-19" value="" style="edgeStyle=orthogonalEdgeStyle;rounded=0;orthogonalLoop=1;jettySize=auto;html=1;fillColor=#d0cee2;strokeColor=#56517e;" edge="1" parent="1" source="wjIAF-qfjq8jpuFrIgBy-4" target="wjIAF-qfjq8jpuFrIgBy-18">
          <mxGeometry relative="1" as="geometry">
            <Array as="points">
              <mxPoint x="420" y="260" />
              <mxPoint x="645" y="260" />
            </Array>
          </mxGeometry>
        </mxCell>
        <mxCell id="wjIAF-qfjq8jpuFrIgBy-23" style="edgeStyle=orthogonalEdgeStyle;rounded=0;orthogonalLoop=1;jettySize=auto;html=1;fillColor=#d0cee2;strokeColor=#56517e;" edge="1" parent="1" source="wjIAF-qfjq8jpuFrIgBy-4" target="wjIAF-qfjq8jpuFrIgBy-21">
          <mxGeometry relative="1" as="geometry">
            <Array as="points">
              <mxPoint x="420" y="260" />
              <mxPoint x="150" y="260" />
            </Array>
          </mxGeometry>
        </mxCell>
        <mxCell id="wjIAF-qfjq8jpuFrIgBy-24" style="edgeStyle=orthogonalEdgeStyle;rounded=0;orthogonalLoop=1;jettySize=auto;html=1;entryX=0.525;entryY=0;entryDx=0;entryDy=0;entryPerimeter=0;fillColor=#d0cee2;strokeColor=#56517e;" edge="1" parent="1" source="wjIAF-qfjq8jpuFrIgBy-4" target="wjIAF-qfjq8jpuFrIgBy-20">
          <mxGeometry relative="1" as="geometry">
            <Array as="points">
              <mxPoint x="420" y="260" />
              <mxPoint x="500" y="260" />
            </Array>
          </mxGeometry>
        </mxCell>
        <mxCell id="wjIAF-qfjq8jpuFrIgBy-4" value="Machine Learning" style="whiteSpace=wrap;html=1;rounded=0;fillColor=#d0cee2;strokeColor=#56517e;" vertex="1" parent="1">
          <mxGeometry x="360" y="160" width="120" height="60" as="geometry" />
        </mxCell>
        <mxCell id="wjIAF-qfjq8jpuFrIgBy-6" value="Genetic algorithm" style="whiteSpace=wrap;html=1;rounded=0;fillColor=#d0cee2;strokeColor=#56517e;" vertex="1" parent="1">
          <mxGeometry x="760" y="160" width="120" height="60" as="geometry" />
        </mxCell>
        <mxCell id="wjIAF-qfjq8jpuFrIgBy-13" value="" style="edgeStyle=orthogonalEdgeStyle;rounded=0;orthogonalLoop=1;jettySize=auto;html=1;exitX=0.5;exitY=1;exitDx=0;exitDy=0;fillColor=#d0cee2;strokeColor=#56517e;" edge="1" parent="1" source="wjIAF-qfjq8jpuFrIgBy-8" target="wjIAF-qfjq8jpuFrIgBy-12">
          <mxGeometry relative="1" as="geometry">
            <Array as="points">
              <mxPoint x="620" y="240" />
              <mxPoint x="830" y="240" />
            </Array>
          </mxGeometry>
        </mxCell>
        <mxCell id="wjIAF-qfjq8jpuFrIgBy-8" value="Ensemble technique" style="whiteSpace=wrap;html=1;rounded=0;fillColor=#d0cee2;strokeColor=#56517e;" vertex="1" parent="1">
          <mxGeometry x="560" y="160" width="120" height="60" as="geometry" />
        </mxCell>
        <mxCell id="wjIAF-qfjq8jpuFrIgBy-27" value="" style="edgeStyle=orthogonalEdgeStyle;rounded=0;orthogonalLoop=1;jettySize=auto;html=1;fillColor=#d0cee2;strokeColor=#56517e;" edge="1" parent="1" source="wjIAF-qfjq8jpuFrIgBy-10" target="wjIAF-qfjq8jpuFrIgBy-26">
          <mxGeometry relative="1" as="geometry" />
        </mxCell>
        <mxCell id="wjIAF-qfjq8jpuFrIgBy-32" style="edgeStyle=orthogonalEdgeStyle;rounded=0;orthogonalLoop=1;jettySize=auto;html=1;entryX=0.5;entryY=0;entryDx=0;entryDy=0;fillColor=#d0cee2;strokeColor=#56517e;" edge="1" parent="1" source="wjIAF-qfjq8jpuFrIgBy-21" target="wjIAF-qfjq8jpuFrIgBy-25">
          <mxGeometry relative="1" as="geometry" />
        </mxCell>
        <mxCell id="wjIAF-qfjq8jpuFrIgBy-10" value="Semi Supervised Learning" style="whiteSpace=wrap;html=1;rounded=0;fillColor=#d0cee2;strokeColor=#56517e;" vertex="1" parent="1">
          <mxGeometry x="288" y="290" width="120" height="60" as="geometry" />
        </mxCell>
        <mxCell id="wjIAF-qfjq8jpuFrIgBy-12" value="Combination of multiple techniques" style="whiteSpace=wrap;html=1;rounded=0;fillColor=#d0cee2;strokeColor=#56517e;" vertex="1" parent="1">
          <mxGeometry x="770" y="290" width="120" height="60" as="geometry" />
        </mxCell>
        <mxCell id="wjIAF-qfjq8jpuFrIgBy-17" value="" style="endArrow=classic;html=1;rounded=0;entryX=0.5;entryY=0;entryDx=0;entryDy=0;fillColor=#d0cee2;strokeColor=#56517e;" edge="1" parent="1" target="wjIAF-qfjq8jpuFrIgBy-8">
          <mxGeometry width="50" height="50" relative="1" as="geometry">
            <mxPoint x="620" y="120" as="sourcePoint" />
            <mxPoint x="480" y="240" as="targetPoint" />
          </mxGeometry>
        </mxCell>
        <mxCell id="wjIAF-qfjq8jpuFrIgBy-31" value="" style="edgeStyle=orthogonalEdgeStyle;rounded=0;orthogonalLoop=1;jettySize=auto;html=1;fillColor=#d0cee2;strokeColor=#56517e;" edge="1" parent="1" source="wjIAF-qfjq8jpuFrIgBy-18" target="wjIAF-qfjq8jpuFrIgBy-30">
          <mxGeometry relative="1" as="geometry" />
        </mxCell>
        <mxCell id="wjIAF-qfjq8jpuFrIgBy-18" value="Reinforcement Learning" style="whiteSpace=wrap;html=1;rounded=0;fillColor=#d0cee2;strokeColor=#56517e;" vertex="1" parent="1">
          <mxGeometry x="585" y="290" width="120" height="60" as="geometry" />
        </mxCell>
        <mxCell id="wjIAF-qfjq8jpuFrIgBy-29" value="" style="edgeStyle=orthogonalEdgeStyle;rounded=0;orthogonalLoop=1;jettySize=auto;html=1;fillColor=#d0cee2;strokeColor=#56517e;" edge="1" parent="1" source="wjIAF-qfjq8jpuFrIgBy-20" target="wjIAF-qfjq8jpuFrIgBy-28">
          <mxGeometry relative="1" as="geometry" />
        </mxCell>
        <mxCell id="wjIAF-qfjq8jpuFrIgBy-20" value="Supervised Learning" style="rounded=0;whiteSpace=wrap;html=1;fillColor=#d0cee2;strokeColor=#56517e;" vertex="1" parent="1">
          <mxGeometry x="437" y="290" width="120" height="60" as="geometry" />
        </mxCell>
        <mxCell id="wjIAF-qfjq8jpuFrIgBy-21" value="Unsupervised Learning&amp;nbsp;" style="whiteSpace=wrap;html=1;rounded=0;fillColor=#d0cee2;strokeColor=#56517e;" vertex="1" parent="1">
          <mxGeometry x="90" y="290" width="120" height="60" as="geometry" />
        </mxCell>
        <mxCell id="wjIAF-qfjq8jpuFrIgBy-25" value="Clustering and&amp;nbsp; Anomaly detection" style="rounded=0;whiteSpace=wrap;html=1;fillColor=#d0cee2;strokeColor=#56517e;" vertex="1" parent="1">
          <mxGeometry x="140" y="400" width="120" height="60" as="geometry" />
        </mxCell>
        <mxCell id="wjIAF-qfjq8jpuFrIgBy-26" value="One class classification and anomaly detection" style="whiteSpace=wrap;html=1;rounded=0;fillColor=#d0cee2;strokeColor=#56517e;" vertex="1" parent="1">
          <mxGeometry x="288" y="400" width="120" height="60" as="geometry" />
        </mxCell>
        <mxCell id="wjIAF-qfjq8jpuFrIgBy-28" value="Classification, Regression and anomaly detection" style="whiteSpace=wrap;html=1;rounded=0;fillColor=#d0cee2;strokeColor=#56517e;" vertex="1" parent="1">
          <mxGeometry x="437" y="400" width="120" height="60" as="geometry" />
        </mxCell>
        <mxCell id="wjIAF-qfjq8jpuFrIgBy-30" value="Agent based Learning" style="whiteSpace=wrap;html=1;rounded=0;fillColor=#d0cee2;strokeColor=#56517e;" vertex="1" parent="1">
          <mxGeometry x="585" y="400" width="120" height="60" as="geometry" />
        </mxCell>
        <mxCell id="wjIAF-qfjq8jpuFrIgBy-33" value="Machine Learning" style="whiteSpace=wrap;html=1;rounded=0;fillColor=#d0cee2;strokeColor=#56517e;" vertex="1" parent="1">
          <mxGeometry x="360" y="160" width="120" height="60" as="geometry" />
        </mxCell>
        <mxCell id="wjIAF-qfjq8jpuFrIgBy-34" value="Ensemble technique" style="whiteSpace=wrap;html=1;rounded=0;fillColor=#d0cee2;strokeColor=#56517e;" vertex="1" parent="1">
          <mxGeometry x="560" y="160" width="120" height="60" as="geometry" />
        </mxCell>
        <mxCell id="wjIAF-qfjq8jpuFrIgBy-35" value="Unsupervised Learning&amp;nbsp;" style="whiteSpace=wrap;html=1;rounded=0;fillColor=#d0cee2;strokeColor=#56517e;" vertex="1" parent="1">
          <mxGeometry x="90" y="290" width="120" height="60" as="geometry" />
        </mxCell>
        <mxCell id="wjIAF-qfjq8jpuFrIgBy-36" value="Semi Supervised Learning" style="whiteSpace=wrap;html=1;rounded=0;fillColor=#d0cee2;strokeColor=#56517e;" vertex="1" parent="1">
          <mxGeometry x="288" y="290" width="120" height="60" as="geometry" />
        </mxCell>
        <mxCell id="wjIAF-qfjq8jpuFrIgBy-37" value="Supervised Learning" style="rounded=0;whiteSpace=wrap;html=1;fillColor=#d0cee2;strokeColor=#56517e;" vertex="1" parent="1">
          <mxGeometry x="437" y="290" width="120" height="60" as="geometry" />
        </mxCell>
        <mxCell id="wjIAF-qfjq8jpuFrIgBy-38" value="Reinforcement Learning" style="whiteSpace=wrap;html=1;rounded=0;fillColor=#d0cee2;strokeColor=#56517e;" vertex="1" parent="1">
          <mxGeometry x="585" y="290" width="120" height="60" as="geometry" />
        </mxCell>
        <mxCell id="wjIAF-qfjq8jpuFrIgBy-39" value="Classification, Regression and anomaly detection" style="whiteSpace=wrap;html=1;rounded=0;fillColor=#d0cee2;strokeColor=#56517e;" vertex="1" parent="1">
          <mxGeometry x="437" y="400" width="120" height="60" as="geometry" />
        </mxCell>
      </root>
    </mxGraphModel>
  </diagram>
</mxfile>
